<svg xmlns="http://www.w3.org/2000/svg" width="87" height="87" viewBox="0 0 87 87">
  <g id="Group_17" data-name="Group 17" transform="translate(-1284.5 -1516)">
    <circle id="Ellipse_3" data-name="Ellipse 3" cx="43.5" cy="43.5" r="43.5" transform="translate(1284.5 1516)" fill="#ffb74c"/>
    <g id="Group_8" data-name="Group 8" transform="translate(1297.702 1543.469) rotate(-11)">
      <path id="Path_10" data-name="Path 10" d="M3424.346,464.277a1.559,1.559,0,0,0-1.448-1.812c-1.282-.277-2.584-.608-3.843-.928q-.663-.168-1.331-.336v-.773q0-1.369,0-2.738c0-2.2.007-4.478-.017-6.717a3.215,3.215,0,0,0-6.32-.866c-.1.411-.291.5-.711.659l-6.415,2.44q-7.734,2.944-15.472,5.878a3.43,3.43,0,0,1-1.175.195c-1.375.009-2.75.008-4.125.006-1.538,0-3.077,0-4.615.01a4.511,4.511,0,0,0-4.821,4.543c-.049,1.529-.049,3.111,0,4.836a4.387,4.387,0,0,0,3.048,4.268,1.17,1.17,0,0,1,.85.81c1.479,3.857,3,7.77,4.475,11.555l.606,1.559c.326.839.624,1.195,1.167,1.195a2.929,2.929,0,0,0,.956-.222q2.843-1.042,5.68-2.1c.579-.217,1-.445,1.171-.855a1.825,1.825,0,0,0-.22-1.439q-.616-1.363-1.235-2.725-1.11-2.447-2.214-4.9c-.179-.4-.159-.518-.153-.536a15.706,15.706,0,0,1,.7-1.437c.054-.1.11-.206.163-.308l2.568.969c6.3,2.379,12.817,4.838,19.215,7.283a1.134,1.134,0,0,1,.506.62,3.352,3.352,0,0,0,2.124,2.183,3.276,3.276,0,0,0,4.262-3.283c-.007-2.426-.006-4.853,0-7.319v-2.673q.686-.177,1.36-.357c1.322-.349,2.571-.68,3.853-.959a1.566,1.566,0,0,0,1.407-1.84C3424.286,466.8,3424.286,465.495,3424.346,464.277Zm-6.564,4.582v-5.2l4.2,1.061v.545c0,.824.006,1.6-.018,2.381a.577.577,0,0,1-.1.165c-1.14.31-2.271.592-3.47.891Zm-4.175-.217V451.688l0-.218a4.653,4.653,0,0,1,.012-.546.778.778,0,0,1,.82-.8l.068,0a.792.792,0,0,1,.833.725,2.925,2.925,0,0,1,.035.63v.182q0,14.563,0,29.127c0,.076,0,.156.005.238a1.366,1.366,0,0,1-.048.581,1.879,1.879,0,0,1-.945.747c-.423.075-.668-.342-.747-.721a2.819,2.819,0,0,1-.03-.6c0-.072,0-.144,0-.216Q3413.606,474.728,3413.607,468.642Zm-23.95-5.861,0-1c0-.422.023-.514.314-.623,4.4-1.657,8.869-3.357,13.189-5l4.733-1.8v12.216h2.391V454.547a2.5,2.5,0,0,1,.112-1.135,1.78,1.78,0,0,1,.8-.258v26.213c-.188-.056-.368-.11-.537-.175l-5.705-2.162c-4.841-1.836-9.848-3.735-14.778-5.586-.441-.165-.535-.3-.53-.74C3389.673,468.062,3389.665,465.377,3389.657,462.781Zm-10.833,8.07a2.119,2.119,0,0,1-2.384-2.33c-.032-1.617-.031-3.2,0-4.706a1.934,1.934,0,0,1,1.952-2.1c1.268-.025,2.521-.032,3.794-.032.873,0,1.757,0,2.66.007q1.176,0,2.365.007v9.152h-3.131Q3381.453,470.857,3378.825,470.85Zm7.691,2.406a5.02,5.02,0,0,1-.407.8,2.349,2.349,0,0,0-.071,2.509c.839,1.767,1.631,3.52,2.47,5.376q.406.9.819,1.81l-4.321,1.624-4.708-12.119Z" transform="translate(-3374.018 -447.712)" fill="#b16a00"/>
      <rect id="Rectangle_9" data-name="Rectangle 9" width="2.261" height="3.873" transform="translate(6.708 14.946)" fill="#b16a00"/>
      <rect id="Rectangle_10" data-name="Rectangle 10" width="2.231" height="3.884" transform="translate(3.41 14.963)" fill="#b16a00"/>
    </g>
  </g>
</svg>
