<svg xmlns="http://www.w3.org/2000/svg" width="87" height="87" viewBox="0 0 87 87">
  <g id="Group_15" data-name="Group 15" transform="translate(-278 -1516)">
    <circle id="Ellipse_1" data-name="Ellipse 1" cx="43.5" cy="43.5" r="43.5" transform="translate(278 1516)" fill="#ffb74c"/>
    <g id="Group_9" data-name="Group 9" transform="translate(298.431 1540.209)">
      <path id="Path_11" data-name="Path 11" d="M3805.9,443.787h16.351c2.917,0,5.219,1.119,6.457,3.841a7.89,7.89,0,0,1,.626,3.131c.05,8.176.037,16.351.023,24.527a6.561,6.561,0,0,1-6.841,6.88q-16.607.043-33.214,0a6.539,6.539,0,0,1-6.889-6.832q-.082-12.348,0-24.7a6.4,6.4,0,0,1,5.034-6.618,9.11,9.11,0,0,1,2.275-.224C3795.108,443.778,3800.5,443.786,3805.9,443.787Zm-20.47,14.2v.88q0,8.133,0,16.266c0,2.611,1.4,4,3.994,4q16.437,0,32.873,0c2.67,0,4.013-1.351,4.015-4.043q.007-8.09,0-16.181v-.923Zm40.855-3.112c0-1.7.082-3.319-.021-4.928-.121-1.892-1.773-3.141-3.982-3.141q-15.367-.007-30.733,0c-.794,0-1.589-.021-2.384.005a3.45,3.45,0,0,0-3.613,2.956,49.683,49.683,0,0,0-.038,5.109Z" transform="translate(-3782.371 -443.784)" fill="#b16a00"/>
      <path id="Path_12" data-name="Path 12" d="M3821.534,484.08l16.039,8-5.214,1.889c1.275,1.53,2.494,2.992,3.761,4.51l-3.072,2.547-3.787-4.445-2.783,4.692C3824.814,495.491,3823.2,489.889,3821.534,484.08Z" transform="translate(-3806.051 -468.15)" fill="#b16a00"/>
      <path id="Path_13" data-name="Path 13" d="M3800.272,457.793a2.521,2.521,0,1,1-5.042.033,2.521,2.521,0,0,1,5.042-.033Z" transform="translate(-3790.146 -450.745)" fill="#b16a00"/>
      <path id="Path_14" data-name="Path 14" d="M3816.866,457.8a2.494,2.494,0,0,1-2.495,2.552,2.527,2.527,0,0,1-2.533-2.529,2.514,2.514,0,0,1,5.027-.023Z" transform="translate(-3800.189 -450.745)" fill="#b16a00"/>
      <path id="Path_15" data-name="Path 15" d="M3830.975,460.35a2.535,2.535,0,0,1-2.549-2.514,2.531,2.531,0,1,1,2.549,2.514Z" transform="translate(-3810.219 -450.746)" fill="#b16a00"/>
    </g>
  </g>
</svg>
