<svg xmlns="http://www.w3.org/2000/svg" width="87" height="87" viewBox="0 0 87 87">
  <g id="Group_16" data-name="Group 16" transform="translate(-773.25 -1516)">
    <circle id="Ellipse_2" data-name="Ellipse 2" cx="43.5" cy="43.5" r="43.5" transform="translate(773.25 1516)" fill="#ffb74c"/>
    <g id="Group_14" data-name="Group 14" transform="translate(796.499 1541.045)">
      <path id="Path_9" data-name="Path 9" d="M3576.836,651.972c.166-.152.306-.273.438-.4,4.86-4.851,9.735-9.688,14.574-14.56a9.864,9.864,0,0,0-.08-14.4,9.44,9.44,0,0,0-9.774-2.229,9.607,9.607,0,0,0-6.657,7.03,9.02,9.02,0,0,1-.268.931,1.41,1.41,0,0,1-1.816.926,1.491,1.491,0,0,1-1.053-1.769,12.6,12.6,0,0,1,7.786-9.577,12.925,12.925,0,0,1,14.066,21.094c-5.255,5.372-10.619,10.638-15.944,15.942a1.566,1.566,0,0,1-2.59-.019c-5.345-5.322-10.746-10.591-16-16a12.905,12.905,0,0,1,3.258-20.676,12.768,12.768,0,0,1,9.762-.834,1.516,1.516,0,1,1-.834,2.877A10.087,10.087,0,0,0,3560,624.944a9.756,9.756,0,0,0,1.269,11.385c2.917,3.118,5.993,6.087,9,9.116q3,3.02,6.019,6.025C3576.458,651.639,3576.641,651.793,3576.836,651.972Z" transform="translate(-3555.706 -616.827)" fill="#b16a00"/>
    </g>
  </g>
</svg>
