<svg id="Group_35" data-name="Group 35" xmlns="http://www.w3.org/2000/svg" width="732.885" height="561.252" viewBox="0 0 732.885 561.252">
  <g id="Group_249" data-name="Group 249" transform="translate(263.521 128.119)">
    <path id="Path_397" data-name="Path 397" d="M1916.3,1138.058a1.523,1.523,0,0,1-1.512-1.713c.085-.687,9.089-68.2,58.232-74.333V996.971a61.651,61.651,0,0,1,1.734-14.516c5.347-22.044,20.117-73.321,41.7-73.321,21.487,0,36.253,49.66,41.6,71.01a61.321,61.321,0,0,1,1.828,14.9v66.4c8.36,2.009,55.564,15.911,57.532,73.621a1.523,1.523,0,0,1-2.542,1.184c-.276-.249-28.185-24.959-56.187-18.822a1.523,1.523,0,0,1-1.852-1.488V995.043a58.312,58.312,0,0,0-1.736-14.158c-4.039-16.117-18.766-68.7-38.648-68.7-8.157,0-16.7,9.6-24.7,27.768-6.87,15.589-11.74,33.773-14.035,43.223a58.6,58.6,0,0,0-1.646,13.8V1113.8a1.525,1.525,0,0,1-1.5,1.524c-.433.008-43.392.956-56.99,22.032A1.522,1.522,0,0,1,1916.3,1138.058Zm151.612-24.656c9.7,0,20.189,2.827,30.839,8.373a100.626,100.626,0,0,1,15.446,9.954c-1.594-23.724-11.227-42.206-28.665-54.974a76.723,76.723,0,0,0-25.648-12.184v49.511A46.668,46.668,0,0,1,2067.914,1113.4Zm-94.892-48.318c-38.145,5.051-50.807,49.6-54.167,65.794,6.712-7,17.292-12.184,31.557-15.452a131.984,131.984,0,0,1,22.611-3.1Z" transform="translate(-1914.777 -909.134)" fill="#fff"/>
  </g>
  <g id="Group_250" data-name="Group 250" transform="translate(358.486 257.534)">
    <path id="Path_398" data-name="Path 398" d="M1983.528,1022.2a6.451,6.451,0,0,1-6.444-6.446v-15.271a6.444,6.444,0,1,1,12.888,0v15.271A6.453,6.453,0,0,1,1983.528,1022.2Z" transform="translate(-1977.083 -994.042)" fill="#fff"/>
  </g>
  <path id="Path_399" data-name="Path 399" d="M1991.851,962.458a21.885,21.885,0,0,0-9.583.831,1.528,1.528,0,0,0-.587,2.535h0a1.538,1.538,0,0,0,1.564.363,18.6,18.6,0,0,1,9.717-.427,18.984,18.984,0,1,1-22.952,20.569,18.874,18.874,0,0,1,2.613-11.8,1.532,1.532,0,0,0-.2-1.889h0a1.523,1.523,0,0,0-2.377.288,21.858,21.858,0,0,0-2.989,14.37,22.036,22.036,0,1,0,24.794-24.838Z" transform="translate(-1623.959 -753.167)" fill="#fff"/>
  <g id="Group_251" data-name="Group 251" transform="translate(330.037 346.994)">
    <rect id="Rectangle_1473" data-name="Rectangle 1473" width="68.721" height="4.795" fill="#fff"/>
  </g>
  <g id="Group_252" data-name="Group 252" transform="translate(330.037 361.378)">
    <rect id="Rectangle_1474" data-name="Rectangle 1474" width="68.721" height="3.253" fill="#fff"/>
  </g>
  <g id="Group_260" data-name="Group 260" transform="translate(0 384.182)">
    <g id="Group_253" data-name="Group 253" transform="translate(191.069 0)">
      <path id="Path_400" data-name="Path 400" d="M1868.77,1157.248h-.108a1.528,1.528,0,0,1-1.415-1.628c1.574-22.605,8.955-38.35,21.935-46.8,17.513-11.4,39.42-5.865,45.361-4.038,3.117-7.677,17.681-19.132,39.448-17.7,22.193,1.433,27,28.324,27,34.905l0,.6c-.02,2.323-.047,5.831,2.2,8.1,1.684,1.7,4.492,2.556,8.351,2.556,3.943,0,6.842-.959,8.619-2.847a7.522,7.522,0,0,0,1.936-5.114l0-46.628a1.524,1.524,0,0,1,3.049,0v46.524a10.477,10.477,0,0,1-2.718,7.26c-2.375,2.557-6.037,3.853-10.883,3.853-4.7,0-8.238-1.163-10.516-3.458-3.144-3.172-3.109-7.617-3.086-10.273l0-.578a48.029,48.029,0,0,0-4.382-16.972c-4.419-9.319-11.068-14.329-19.764-14.891-21.325-1.372-35.471,10.436-36.763,16.89a1.525,1.525,0,0,1-2.012,1.135c-.253-.09-25.455-8.965-44.191,3.239-12.125,7.9-19.035,22.854-20.538,44.443A1.525,1.525,0,0,1,1868.77,1157.248Z" transform="translate(-1867.243 -1077.134)" fill="#fff"/>
    </g>
    <g id="Group_254" data-name="Group 254" transform="translate(257.837 28.056)">
      <path id="Path_401" data-name="Path 401" d="M1930.687,1112.086a1.518,1.518,0,0,1-1.166-.542c-5.431-6.446-17.554-13.073-17.676-13.139a1.525,1.525,0,0,1,1.455-2.68c.518.282,12.749,6.967,18.551,13.854a1.525,1.525,0,0,1-1.165,2.507Z" transform="translate(-1911.049 -1095.541)" fill="#fff"/>
    </g>
    <g id="Group_255" data-name="Group 255" transform="translate(84.17 42.666)">
      <path id="Path_402" data-name="Path 402" d="M1798.631,1156.072a1.526,1.526,0,0,1-1.449-1.994c6.167-19.06,17.435-32.767,33.5-40.74,34.879-17.318,79.76-1.966,81.652-1.308a1.525,1.525,0,0,1-1.006,2.879c-.451-.157-45.582-15.585-79.3,1.166-15.29,7.595-26.037,20.7-31.941,38.941A1.522,1.522,0,0,1,1798.631,1156.072Z" transform="translate(-1797.107 -1105.127)" fill="#fff"/>
    </g>
    <g id="Group_256" data-name="Group 256" transform="translate(206.341 44.392)">
      <path id="Path_403" data-name="Path 403" d="M1878.788,1141.981c-.02,0-.041,0-.062,0a1.524,1.524,0,0,1-1.462-1.582c.046-1.145,1.3-28.089,18.061-34.049a1.524,1.524,0,0,1,1.021,2.871c-14.818,5.269-16.026,31.039-16.036,31.3A1.522,1.522,0,0,1,1878.788,1141.981Z" transform="translate(-1877.262 -1106.26)" fill="#fff"/>
    </g>
    <g id="Group_257" data-name="Group 257" transform="translate(230.137 41.51)">
      <path id="Path_404" data-name="Path 404" d="M1907.54,1108.634a1.514,1.514,0,0,1-.572-.111,17.274,17.274,0,0,0-11.976-.009,1.525,1.525,0,0,1-1.194-2.806,20.075,20.075,0,0,1,14.312-.011,1.524,1.524,0,0,1-.571,2.937Z" transform="translate(-1892.875 -1104.368)" fill="#fff"/>
    </g>
    <g id="Group_258" data-name="Group 258" transform="translate(0 90.562)">
      <path id="Path_405" data-name="Path 405" d="M1743.409,1223.059h-.014a1.526,1.526,0,0,1-1.511-1.539c0-.361.72-35.673,31.131-36.647,1.491-7.871,11.5-48.321,59.536-48.321,16.091,0,28.4,4.708,36.583,13.993,13.465,15.278,10.86,37.227,10.743,38.155a1.525,1.525,0,0,1-3.025-.382c.027-.215,2.536-21.544-10.02-35.776-7.578-8.587-19.112-12.942-34.28-12.942-50.214,0-56.491,45.049-56.733,46.966a1.524,1.524,0,0,1-1.512,1.334c-12.009,0-20.593,5.611-25.509,16.675a48.4,48.4,0,0,0-3.865,16.977A1.524,1.524,0,0,1,1743.409,1223.059Z" transform="translate(-1741.884 -1136.551)" fill="#fff"/>
    </g>
    <g id="Group_259" data-name="Group 259" transform="translate(46.808 102.992)">
      <path id="Path_406" data-name="Path 406" d="M1774.188,1195.7a1.525,1.525,0,0,1-1.518-1.408c-.067-.872-1.481-21.528,11.572-36.052,7.68-8.547,18.741-13.1,32.875-13.533a1.592,1.592,0,0,1,1.572,1.479,1.526,1.526,0,0,1-1.479,1.57c-13.259.405-23.583,4.612-30.685,12.5-12.181,13.538-10.829,33.6-10.815,33.8a1.525,1.525,0,0,1-1.405,1.634C1774.267,1195.7,1774.228,1195.7,1774.188,1195.7Z" transform="translate(-1772.595 -1144.706)" fill="#fff"/>
    </g>
  </g>
  <g id="Group_268" data-name="Group 268" transform="translate(383.917 384.182)">
    <g id="Group_261" data-name="Group 261" transform="translate(0 0)">
      <path id="Path_407" data-name="Path 407" d="M2150.142,1157.248a1.524,1.524,0,0,1-1.519-1.417c-1.5-21.59-8.415-36.544-20.54-44.443-18.737-12.209-43.936-3.331-44.189-3.239a1.524,1.524,0,0,1-2.012-1.135c-1.292-6.453-15.457-18.264-36.763-16.89-8.7.563-15.347,5.572-19.764,14.891a48.06,48.06,0,0,0-4.38,16.972l0,.576c.021,2.657.058,7.1-3.089,10.275-2.275,2.3-5.813,3.458-10.514,3.458-4.847,0-8.508-1.3-10.883-3.853a10.487,10.487,0,0,1-2.711-7.373l0-46.411a1.524,1.524,0,0,1,3.049,0v46.524a7.539,7.539,0,0,0,1.931,5.218c1.777,1.888,4.677,2.847,8.619,2.847,3.858,0,6.667-.86,8.349-2.556,2.253-2.271,2.224-5.781,2.205-8.1l0-.6c0-6.581,4.8-33.473,27-34.905,21.8-1.4,36.33,10.028,39.448,17.7,5.941-1.829,27.85-7.362,45.36,4.038,12.981,8.447,20.362,24.192,21.936,46.8a1.528,1.528,0,0,1-1.416,1.628Z" transform="translate(-1993.768 -1077.134)" fill="#fff"/>
    </g>
    <g id="Group_262" data-name="Group 262" transform="translate(69.97 28.056)">
      <path id="Path_408" data-name="Path 408" d="M2041.2,1112.086a1.525,1.525,0,0,1-1.163-2.507c5.8-6.886,18.032-13.571,18.551-13.854a1.525,1.525,0,0,1,1.455,2.68c-.122.066-12.245,6.693-17.675,13.139A1.519,1.519,0,0,1,2041.2,1112.086Z" transform="translate(-2039.675 -1095.541)" fill="#fff"/>
    </g>
    <g id="Group_263" data-name="Group 263" transform="translate(148.556 42.667)">
      <path id="Path_409" data-name="Path 409" d="M2205.954,1156.071a1.527,1.527,0,0,1-1.451-1.055c-5.9-18.245-16.648-31.346-31.941-38.941-33.715-16.751-78.847-1.323-79.3-1.166a1.525,1.525,0,0,1-1.006-2.879c1.893-.66,46.77-16.007,81.65,1.308,16.061,7.973,27.33,21.68,33.5,40.74a1.523,1.523,0,0,1-.982,1.919A1.507,1.507,0,0,1,2205.954,1156.071Z" transform="translate(-2091.234 -1105.127)" fill="#fff"/>
    </g>
    <g id="Group_264" data-name="Group 264" transform="translate(122.532 44.392)">
      <path id="Path_410" data-name="Path 410" d="M2092.73,1141.981a1.523,1.523,0,0,1-1.521-1.462c-.01-.261-1.217-26.03-16.035-31.3a1.524,1.524,0,1,1,1.021-2.871c16.76,5.959,18.014,32.9,18.058,34.049a1.521,1.521,0,0,1-1.461,1.582C2092.772,1141.981,2092.75,1141.981,2092.73,1141.981Z" transform="translate(-2074.16 -1106.26)" fill="#fff"/>
    </g>
    <g id="Group_265" data-name="Group 265" transform="translate(102.643 41.508)">
      <path id="Path_411" data-name="Path 411" d="M2062.636,1108.635a1.524,1.524,0,0,1-.572-2.937,20.056,20.056,0,0,1,14.312.011,1.525,1.525,0,0,1-1.2,2.8,17.245,17.245,0,0,0-11.972.011A1.515,1.515,0,0,1,2062.636,1108.635Z" transform="translate(-2061.111 -1104.368)" fill="#fff"/>
    </g>
    <g id="Group_266" data-name="Group 266" transform="translate(210.699 90.562)">
      <path id="Path_412" data-name="Path 412" d="M2268.75,1223.059a1.526,1.526,0,0,1-1.524-1.508,48.559,48.559,0,0,0-3.9-17.058c-4.924-11.01-13.495-16.594-25.474-16.594a1.524,1.524,0,0,1-1.512-1.334c-.243-1.917-6.521-46.966-56.733-46.966-15.169,0-26.7,4.354-34.281,12.942-12.558,14.231-10.047,35.561-10.02,35.776a1.525,1.525,0,0,1-3.025.382c-.118-.928-2.723-22.876,10.742-38.155,8.182-9.285,20.491-13.993,36.583-13.993,27.644,0,42.431,13.5,49.969,24.831a64.838,64.838,0,0,1,9.579,23.49c30.4.983,31.113,36.286,31.118,36.647a1.523,1.523,0,0,1-1.507,1.539Z" transform="translate(-2132.006 -1136.551)" fill="#fff"/>
    </g>
    <g id="Group_267" data-name="Group 267" transform="translate(256.067 102.992)">
      <path id="Path_413" data-name="Path 413" d="M2206.27,1195.7c-.038,0-.075,0-.116,0a1.525,1.525,0,0,1-1.4-1.634c.015-.2,1.367-20.264-10.815-33.8-7.1-7.892-17.426-12.1-30.685-12.5a1.525,1.525,0,0,1,.044-3.048h.047c14.136.433,25.2,4.986,32.877,13.533,13.051,14.524,11.637,35.18,11.571,36.052A1.527,1.527,0,0,1,2206.27,1195.7Z" transform="translate(-2161.771 -1144.706)" fill="#fff"/>
    </g>
  </g>
  <g id="Group_269" data-name="Group 269" transform="translate(230.136 456.988)">
    <path id="Path_414" data-name="Path 414" d="M1894.4,1210.344c-.027,0-.055,0-.081,0a1.524,1.524,0,0,1-1.443-1.6c.018-.35,2.18-34.582,34.6-36.885,1.023-7.787,8.14-46.954,47.538-46.954,42.293,0,51.464,34.518,53.409,47.635,5.367-1.02,22.406-3.32,34.9,5.63,7.833,5.611,12.329,14.565,13.358,26.617a1.523,1.523,0,1,1-3.036.259c-.951-11.114-5.017-19.32-12.087-24.389-13.538-9.707-33.858-4.856-34.064-4.806a1.523,1.523,0,0,1-1.879-1.3c-5.106-42.063-37.091-46.6-50.6-46.6-17.033,0-29.708,7.584-37.675,22.546a65.668,65.668,0,0,0-6.974,22.925,1.524,1.524,0,0,1-1.453,1.405c-12.968.565-22.453,6.443-28.193,17.472a45.49,45.49,0,0,0-4.8,16.6A1.526,1.526,0,0,1,1894.4,1210.344Z" transform="translate(-1892.874 -1124.901)" fill="#fff"/>
  </g>
  <g id="Group_270" data-name="Group 270" transform="translate(278.791 477.942)">
    <path id="Path_415" data-name="Path 415" d="M1926.322,1170.463a1.524,1.524,0,0,1-1.524-1.5c-.016-.942-.177-23.137,16.923-30.2a1.523,1.523,0,1,1,1.165,2.815c-15.168,6.266-15.042,27.124-15.039,27.334a1.526,1.526,0,0,1-1.5,1.547Z" transform="translate(-1924.797 -1138.649)" fill="#fff"/>
  </g>
  <g id="Group_271" data-name="Group 271" transform="translate(301.88 472.733)">
    <path id="Path_416" data-name="Path 416" d="M1941.471,1140.285a1.522,1.522,0,0,1-.9-2.751c.182-.131,4.5-3.185,12.132-2.05a1.524,1.524,0,1,1-.452,3.015c-6.315-.954-9.753,1.405-9.9,1.508A1.538,1.538,0,0,1,1941.471,1140.285Z" transform="translate(-1939.944 -1135.232)" fill="#fff"/>
  </g>
  <g id="Group_272" data-name="Group 272" transform="translate(350.232 466.339)">
    <path id="Path_417" data-name="Path 417" d="M2138.635,1214.23a1.526,1.526,0,0,1-1.518-1.384c-1.635-17.794-8.054-30.889-19.074-38.928-18.765-13.686-44.872-8.083-45.134-8.026a1.521,1.521,0,0,1-1.656-.735c-8.108-14.287-33.741-45.238-96.389-24.123-1.472.494-2.144.721-2.833-.091a1.523,1.523,0,0,1,.947-2.494c.171-.052.477-.157.915-.3,14.96-5.041,29.349-7.437,42.758-7.072,25.707.667,44.778,11.306,56.7,31.625,5.373-.987,28.606-4.267,46.469,8.746,11.772,8.575,18.614,22.41,20.334,41.124a1.527,1.527,0,0,1-1.38,1.657C2138.728,1214.229,2138.681,1214.23,2138.635,1214.23Z" transform="translate(-1971.668 -1131.037)" fill="#fff"/>
  </g>
  <g id="Group_275" data-name="Group 275" transform="translate(121.353 283.409)">
    <g id="Group_273" data-name="Group 273" transform="translate(0 0)">
      <path id="Path_418" data-name="Path 418" d="M1823.028,1029.514a1.523,1.523,0,0,1-1.136-2.541l13.85-15.449a1.525,1.525,0,0,1,2.27,2.036l-13.85,15.448A1.52,1.52,0,0,1,1823.028,1029.514Z" transform="translate(-1821.503 -1011.018)" fill="#fff"/>
    </g>
    <g id="Group_274" data-name="Group 274" transform="translate(0 0)">
      <path id="Path_419" data-name="Path 419" d="M1836.877,1029.514a1.52,1.52,0,0,1-1.134-.506l-13.85-15.448a1.525,1.525,0,0,1,2.27-2.036l13.85,15.449a1.523,1.523,0,0,1-1.136,2.541Z" transform="translate(-1821.503 -1011.018)" fill="#fff"/>
    </g>
  </g>
  <g id="Group_278" data-name="Group 278" transform="translate(70.32 120.394)">
    <g id="Group_276" data-name="Group 276" transform="translate(0 0.001)">
      <path id="Path_420" data-name="Path 420" d="M1789.545,922.564a1.524,1.524,0,0,1-1.134-2.543l13.85-15.447a1.524,1.524,0,1,1,2.268,2.036l-13.85,15.448A1.515,1.515,0,0,1,1789.545,922.564Z" transform="translate(-1788.021 -904.067)" fill="#fff"/>
    </g>
    <g id="Group_277" data-name="Group 277">
      <path id="Path_421" data-name="Path 421" d="M1803.394,922.564a1.518,1.518,0,0,1-1.134-.506l-13.85-15.448a1.524,1.524,0,1,1,2.268-2.036l13.85,15.448a1.524,1.524,0,0,1-1.134,2.542Z" transform="translate(-1788.021 -904.066)" fill="#fff"/>
    </g>
  </g>
  <g id="Group_281" data-name="Group 281" transform="translate(236.352 143.302)">
    <g id="Group_279" data-name="Group 279">
      <path id="Path_422" data-name="Path 422" d="M1898.476,937.594a1.524,1.524,0,0,1-1.134-2.542l13.85-15.451a1.524,1.524,0,0,1,2.268,2.036l-13.851,15.451A1.523,1.523,0,0,1,1898.476,937.594Z" transform="translate(-1896.953 -919.096)" fill="#fff"/>
    </g>
    <g id="Group_280" data-name="Group 280">
      <path id="Path_423" data-name="Path 423" d="M1912.327,937.594a1.522,1.522,0,0,1-1.134-.506l-13.85-15.451a1.524,1.524,0,0,1,2.268-2.036l13.851,15.451a1.524,1.524,0,0,1-1.134,2.542Z" transform="translate(-1896.953 -919.096)" fill="#fff"/>
    </g>
  </g>
  <g id="Group_284" data-name="Group 284" transform="translate(161.237)">
    <g id="Group_282" data-name="Group 282">
      <path id="Path_424" data-name="Path 424" d="M1849.2,843.573a1.525,1.525,0,0,1-1.135-2.542l13.85-15.449a1.525,1.525,0,0,1,2.27,2.036l-13.85,15.449A1.521,1.521,0,0,1,1849.2,843.573Z" transform="translate(-1847.67 -825.077)" fill="#fff"/>
    </g>
    <g id="Group_283" data-name="Group 283">
      <path id="Path_425" data-name="Path 425" d="M1863.044,843.573a1.523,1.523,0,0,1-1.134-.506l-13.85-15.449a1.525,1.525,0,0,1,2.27-2.036l13.85,15.449a1.525,1.525,0,0,1-1.136,2.542Z" transform="translate(-1847.67 -825.077)" fill="#fff"/>
    </g>
  </g>
  <g id="Group_287" data-name="Group 287" transform="translate(332.881 15.677)">
    <g id="Group_285" data-name="Group 285">
      <path id="Path_426" data-name="Path 426" d="M1978.107,817.01a1.524,1.524,0,0,1-1.134-2.542l13.849-15.449a1.525,1.525,0,0,1,2.27,2.036L1979.242,816.5A1.523,1.523,0,0,1,1978.107,817.01Z" transform="translate(-1976.583 -798.514)" fill="#fff"/>
    </g>
    <g id="Group_286" data-name="Group 286">
      <path id="Path_427" data-name="Path 427" d="M1991.958,817.01a1.525,1.525,0,0,1-1.135-.506l-13.849-15.449a1.524,1.524,0,1,1,2.268-2.036l13.851,15.449a1.524,1.524,0,0,1-1.134,2.542Z" transform="translate(-1976.583 -798.514)" fill="#fff"/>
    </g>
  </g>
  <g id="Group_290" data-name="Group 290" transform="translate(503.086)">
    <g id="Group_288" data-name="Group 288" transform="translate(0 0.001)">
      <path id="Path_428" data-name="Path 428" d="M2073.479,843.573a1.524,1.524,0,0,1-1.135-2.542l13.851-15.449a1.524,1.524,0,1,1,2.269,2.036l-13.851,15.449A1.52,1.52,0,0,1,2073.479,843.573Z" transform="translate(-2071.954 -825.077)" fill="#fff"/>
    </g>
    <g id="Group_289" data-name="Group 289">
      <path id="Path_429" data-name="Path 429" d="M2087.331,843.573a1.521,1.521,0,0,1-1.135-.506l-13.851-15.449a1.524,1.524,0,1,1,2.268-2.036l13.851,15.449a1.524,1.524,0,0,1-1.134,2.542Z" transform="translate(-2071.954 -825.077)" fill="#fff"/>
    </g>
  </g>
  <g id="Group_293" data-name="Group 293" transform="translate(594.634 334.815)">
    <g id="Group_291" data-name="Group 291" transform="translate(0 0)">
      <path id="Path_430" data-name="Path 430" d="M2133.542,1063.242a1.524,1.524,0,0,1-1.135-2.542l13.85-15.449a1.524,1.524,0,1,1,2.268,2.036l-13.85,15.449A1.517,1.517,0,0,1,2133.542,1063.242Z" transform="translate(-2132.018 -1044.746)" fill="#fff"/>
    </g>
    <g id="Group_292" data-name="Group 292" transform="translate(0 0)">
      <path id="Path_431" data-name="Path 431" d="M2147.392,1063.242a1.517,1.517,0,0,1-1.134-.506l-13.85-15.449a1.524,1.524,0,0,1,2.268-2.036l13.85,15.449a1.524,1.524,0,0,1-1.133,2.542Z" transform="translate(-2132.018 -1044.746)" fill="#fff"/>
    </g>
  </g>
  <g id="Group_296" data-name="Group 296" transform="translate(469.684 216.818)">
    <g id="Group_294" data-name="Group 294" transform="translate(0 0)">
      <path id="Path_432" data-name="Path 432" d="M2051.564,985.825a1.524,1.524,0,0,1-1.135-2.542l13.85-15.449a1.525,1.525,0,0,1,2.27,2.036L2052.7,985.319A1.52,1.52,0,0,1,2051.564,985.825Z" transform="translate(-2050.039 -967.329)" fill="#fff"/>
    </g>
    <g id="Group_295" data-name="Group 295">
      <path id="Path_433" data-name="Path 433" d="M2065.416,985.825a1.521,1.521,0,0,1-1.136-.506l-13.85-15.449a1.524,1.524,0,0,1,2.268-2.036l13.852,15.449a1.525,1.525,0,0,1-1.134,2.542Z" transform="translate(-2050.039 -967.328)" fill="#fff"/>
    </g>
  </g>
  <g id="Group_299" data-name="Group 299" transform="translate(587.708 112.67)">
    <g id="Group_297" data-name="Group 297" transform="translate(0 0.001)">
      <path id="Path_434" data-name="Path 434" d="M2129,917.5a1.524,1.524,0,0,1-1.134-2.542l13.85-15.449a1.524,1.524,0,0,1,2.269,2.036l-13.85,15.449A1.517,1.517,0,0,1,2129,917.5Z" transform="translate(-2127.474 -898.999)" fill="#fff"/>
    </g>
    <g id="Group_298" data-name="Group 298">
      <path id="Path_435" data-name="Path 435" d="M2142.848,917.5a1.519,1.519,0,0,1-1.135-.506l-13.85-15.449a1.524,1.524,0,1,1,2.268-2.036l13.85,15.449a1.524,1.524,0,0,1-1.134,2.542Z" transform="translate(-2127.474 -898.998)" fill="#fff"/>
    </g>
  </g>
</svg>
