<svg xmlns="http://www.w3.org/2000/svg" width="156" height="156" viewBox="0 0 156 156">
  <g id="Group_360" data-name="Group 360" transform="translate(-6697 648)">
    <rect id="Rectangle_1550" data-name="Rectangle 1550" width="156" height="156" rx="78" transform="translate(6697 -648)" fill="#d6d6d6"/>
    <g id="Group_359" data-name="Group 359" transform="translate(6434.648 -1315.268)">
      <path id="Path_437" data-name="Path 437" d="M376.846,764.291c-6.456-10.863-16.1-17.268-28.41-19.945a22.355,22.355,0,0,0,13.893-26.424c-2.516-9.487-11.026-16.433-20.58-16.648a22.258,22.258,0,0,0-22.106,15.787,22.318,22.318,0,0,0,13.775,27.222c-23.346,4.736-34.529,25.214-34.052,40.744,0,.032-.01.062-.01.094s.011.084.013.127v.027h0a3.146,3.146,0,0,0,6.289-.154c0-.019-.005-.036-.005-.055h.014c.1-20.139,17.181-34.191,33.592-34.7a34.536,34.536,0,0,1,22.926,7.187c8.187,6.347,11.805,17.7,12.835,27.7a3.335,3.335,0,0,0,3.3,3.022h0a3.334,3.334,0,0,0,3.31-3.648C381.077,778.451,380.042,769.67,376.846,764.291Zm-36.055-25.324a15.551,15.551,0,1,1,15.666-15.426A15.573,15.573,0,0,1,340.791,738.967Z" fill="#a2a2a2"/>
    </g>
  </g>
</svg>
