<svg xmlns="http://www.w3.org/2000/svg" width="41" height="41" viewBox="0 0 41 41">
  <g id="Group_357" data-name="Group 357" transform="translate(0.25 0.5)">
    <circle id="Ellipse_137" data-name="Ellipse 137" cx="20.5" cy="20.5" r="20.5" transform="translate(-0.25 -0.5)" fill="#e6e6e6"/>
    <g id="Group_354" data-name="Group 354" transform="translate(8.874 8.755)">
      <g id="Group_29" data-name="Group 29" transform="translate(0 0)">
        <path id="Path_22" data-name="Path 22" d="M879.355,490.169c0,1.946,0,3.892,0,5.838a5.842,5.842,0,0,1-5.81,5.808q-5.876.01-11.752,0a5.809,5.809,0,0,1-5.733-5.156c-.087-.869-.052-1.752-.054-2.629q-.007-4.874,0-9.748a5.836,5.836,0,0,1,5.823-5.82q5.863-.009,11.726,0a5.846,5.846,0,0,1,5.8,5.818Q879.357,487.224,879.355,490.169Zm-11.7,9.979q2.918,0,5.836,0a4.146,4.146,0,0,0,4.2-4.2q0-5.824,0-11.649a4.142,4.142,0,0,0-4.169-4.172q-4.937-.006-9.875,0a22.78,22.78,0,0,0-2.392.058,4.076,4.076,0,0,0-3.573,4.006q-.02,5.941,0,11.883a3.892,3.892,0,0,0,.76,2.313,4.066,4.066,0,0,0,3.431,1.753C863.8,500.158,865.725,500.149,867.653,500.149Z" transform="translate(-856 -478.458)"/>
      </g>
      <g id="Group_30" data-name="Group 30" transform="translate(5.842 5.841)">
        <path id="Path_23" data-name="Path 23" d="M876.509,504.8a5.838,5.838,0,1,1,5.776,5.843A5.855,5.855,0,0,1,876.509,504.8Zm1.669.007a4.17,4.17,0,1,0,4.173-4.174A4.169,4.169,0,0,0,878.177,504.809Z" transform="translate(-876.509 -498.966)"/>
      </g>
      <g id="Group_31" data-name="Group 31" transform="translate(16.683 3.339)">
        <path id="Path_24" data-name="Path 24" d="M917.907,491.862a1.668,1.668,0,1,1-1.641-1.681A1.68,1.68,0,0,1,917.907,491.862Z" transform="translate(-914.571 -490.181)"/>
      </g>
    </g>
  </g>
</svg>
