<svg xmlns="http://www.w3.org/2000/svg" width="41" height="41" viewBox="0 0 41 41">
  <g id="Group_356" data-name="Group 356" transform="translate(0.5 0.5)">
    <circle id="Ellipse_138" data-name="Ellipse 138" cx="20.5" cy="20.5" r="20.5" transform="translate(-0.5 -0.5)" fill="#e6e6e6"/>
    <g id="Group_355" data-name="Group 355" transform="translate(8.775 8.172)">
      <g id="Group_26" data-name="Group 26" transform="translate(0 0)">
        <path id="Path_20" data-name="Path 20" d="M687.194,476.412h1.074a1.2,1.2,0,0,0,.131.02,10.981,10.981,0,0,1,2.216.335,11.63,11.63,0,0,1,6.848,4.779,11.261,11.261,0,0,1,1.944,5.263c.027.246.047.492.071.738v1.05c-.007.044-.015.087-.021.131-.057.48-.085.966-.176,1.439a11.722,11.722,0,0,1-9.941,9.449,11.79,11.79,0,0,1-3.5-.04,11.542,11.542,0,0,1-3.645-1.226.361.361,0,0,0-.309-.024q-3.105.991-6.213,1.976c-.035.011-.072.018-.121.031.016-.051.026-.081.036-.112q1.013-2.989,2.028-5.977a.316.316,0,0,0-.028-.293,11.577,11.577,0,0,1-.887-9.9,11.744,11.744,0,0,1,9.755-7.565C686.7,476.456,686.947,476.435,687.194,476.412ZM678.5,497.45l.107-.03q1.777-.564,3.553-1.131a.265.265,0,0,1,.248.031,9.849,9.849,0,0,0,14.43-12.031,9.908,9.908,0,0,0-11.578-5.711,9.672,9.672,0,0,0-5.392,3.564,9.535,9.535,0,0,0-1.9,7.457,9.376,9.376,0,0,0,1.689,4.111.217.217,0,0,1,.033.223q-.4,1.169-.8,2.342C678.769,496.66,678.64,497.044,678.5,497.45Z" transform="translate(-675.551 -476.412)"/>
      </g>
      <g id="Group_27" data-name="Group 27" transform="translate(6.445 6.334)">
        <path id="Path_21" data-name="Path 21" d="M700.339,498.669c.059,0,.157.005.254,0a.419.419,0,0,1,.405.2,2.3,2.3,0,0,1,.18.344c.3.7.592,1.408.89,2.111a.554.554,0,0,1-.007.47,3.743,3.743,0,0,1-.72.963c-.234.256-.253.36-.073.656a7.733,7.733,0,0,0,3.273,3.05c.22.106.443.2.667.3a.418.418,0,0,0,.582-.138q.458-.555.906-1.119a.38.38,0,0,1,.47-.157,3.453,3.453,0,0,1,.453.177c.661.314,1.317.637,1.979.948a.438.438,0,0,1,.288.456,3.238,3.238,0,0,1-.249,1.162,1.58,1.58,0,0,1-.517.608,3.565,3.565,0,0,1-1.507.7,3.047,3.047,0,0,1-1.524-.113,14.378,14.378,0,0,1-2.646-1.018,9.965,9.965,0,0,1-2.537-1.983,14.443,14.443,0,0,1-2.162-2.911,4.079,4.079,0,0,1-.566-2.058,3.21,3.21,0,0,1,1.094-2.391,1.015,1.015,0,0,1,.772-.274Z" transform="translate(-698.178 -498.65)"/>
      </g>
    </g>
  </g>
</svg>
