<svg xmlns="http://www.w3.org/2000/svg" width="40" height="41" viewBox="0 0 40 41">
  <g id="Group_358" data-name="Group 358" transform="translate(0 0.5)">
    <ellipse id="Ellipse_136" data-name="Ellipse 136" cx="20" cy="20.5" rx="20" ry="20.5" transform="translate(0 -0.5)" fill="#e6e6e6"/>
    <path id="LinkedIn" d="M23.688,23.435v8.757H18.611V24.022c0-2.053-.734-3.453-2.572-3.453a2.778,2.778,0,0,0-2.6,1.857,3.474,3.474,0,0,0-.168,1.238v8.529H8.186s.068-13.839,0-15.273h5.078v2.165c-.01.016-.024.034-.033.049h.033v-.049a5.042,5.042,0,0,1,4.577-2.524C21.183,16.561,23.688,18.744,23.688,23.435ZM2.874,9.558a2.647,2.647,0,1,0-.067,5.278H2.84a2.647,2.647,0,1,0,.033-5.278ZM.3,32.193H5.378V16.92H.3Z" transform="translate(9.064 -3.29)"/>
  </g>
</svg>
