<svg xmlns="http://www.w3.org/2000/svg" width="288" height="40.339" viewBox="0 0 288 40.339">
  <g id="Group_24" data-name="Group 24" transform="translate(-239.282 -519.168)">
    <g id="Group_1" data-name="Group 1" transform="translate(239.282 519.168)">
      <path id="Path_1" data-name="Path 1" d="M275.678,518.3a12.616,12.616,0,0,0-10.057,4.857c-1.6-3.085-4.628-4.857-8.626-4.857-4.4,0-7.029,2.343-9.03,4.914V518.87h-8.683V549.5h8.683V532.413c0-4.113,2-6.229,5.258-6.229s5.084,2.115,5.084,6.229V549.5h8.685V532.413c0-4.113,2-6.229,5.258-6.229s5.084,2.115,5.084,6.229V549.5h8.685V529.555C286.02,522.185,282.133,518.3,275.678,518.3Z" transform="translate(-239.282 -518.299)" fill="#fff"/>
      <path id="Path_2" data-name="Path 2" d="M385.46,518.3c-9.543,0-16.628,7.143-16.628,15.942v.115c0,8.8,7.029,15.827,16.513,15.827,9.541,0,16.628-7.143,16.628-15.941v-.115C401.973,525.327,394.944,518.3,385.46,518.3Zm7.942,16.056c0,4.513-2.971,8.341-7.942,8.341-4.8,0-8.057-3.943-8.057-8.456v-.115c0-4.513,2.971-8.341,7.942-8.341,4.8,0,8.057,3.943,8.057,8.456Z" transform="translate(-317.115 -518.299)" fill="#fff"/>
      <path id="Path_3" data-name="Path 3" d="M492.783,549.5V529.67c0-7.028-3.829-11.371-10.4-11.371-4.4,0-6.972,2.343-8.972,4.914V518.87h-8.683V549.5h8.683V532.413c0-4.113,2.115-6.229,5.428-6.229s5.258,2.115,5.258,6.229V549.5Z" transform="translate(-374.729 -518.299)" fill="#fff"/>
      <path id="Path_4" data-name="Path 4" d="M727.285,549.842v-17.77c0-4.113-1.028-7.485-3.313-9.77-2.172-2.171-5.6-3.427-10.342-3.427a27.008,27.008,0,0,0-11.885,2.457l2.172,6.628a22.515,22.515,0,0,1,8.456-1.657c4.343,0,6.571,2,6.571,5.6v.514a21.774,21.774,0,0,0-7.485-1.257c-7.256,0-12.341,3.086-12.341,9.771v.115c0,6.057,4.742,9.37,10.512,9.37a11.776,11.776,0,0,0,9.257-3.885v3.314Zm-15.026-5.428c-2.8,0-4.743-1.372-4.743-3.714v-.115c0-2.742,2.285-4.228,6-4.228a13.48,13.48,0,0,1,5.543,1.143v1.543C719.059,542.186,716.315,544.414,712.259,544.414Z" transform="translate(-515.55 -518.644)" fill="#fff"/>
      <path id="Path_5" data-name="Path 5" d="M804.281,518.3a11.248,11.248,0,0,0-9.543,4.971v-4.4h-8.683v39.768h8.683V545.5a11.764,11.764,0,0,0,9.543,4.571c7.256,0,13.941-5.6,13.941-15.827v-.115C818.222,523.9,811.422,518.3,804.281,518.3Zm5.256,15.942c0,5.142-3.428,8.456-7.485,8.456s-7.426-3.371-7.426-8.456v-.115c0-5.085,3.37-8.456,7.426-8.456s7.485,3.371,7.485,8.456Z" transform="translate(-567.781 -518.299)" fill="#fff"/>
      <path id="Path_6" data-name="Path 6" d="M898.365,518.3a11.247,11.247,0,0,0-9.543,4.971v-4.4h-8.684v39.768h8.684V545.5a11.762,11.762,0,0,0,9.543,4.571c7.256,0,13.941-5.6,13.941-15.827v-.115C912.306,523.9,905.507,518.3,898.365,518.3Zm5.256,15.942c0,5.142-3.427,8.456-7.485,8.456s-7.426-3.371-7.426-8.456v-.115c0-5.085,3.37-8.456,7.426-8.456s7.485,3.371,7.485,8.456Z" transform="translate(-624.306 -518.299)" fill="#fff"/>
      <path id="Path_7" data-name="Path 7" d="M603.817,547.038a7.221,7.221,0,0,0-13.935-2.668H570.135a7.229,7.229,0,1,0,0,5.335h19.747a7.221,7.221,0,0,0,13.935-2.667Z" transform="translate(-429.685 -531.222)" fill="#fff"/>
    </g>
  </g>
</svg>
