<svg id="Group_322" data-name="Group 322" xmlns="http://www.w3.org/2000/svg" width="35.61" height="35.651" viewBox="0 0 35.61 35.651">
  <path id="Path_8" data-name="Path 8" d="M920.7,690.219a15.408,15.408,0,1,1,3.441,3.387c-.16.151-.335.31-.5.476q-3.379,3.376-6.759,6.752a2.2,2.2,0,0,1-2.568.528,2.327,2.327,0,0,1-1.489-2.377,3.4,3.4,0,0,1,.866-1.655c2.175-2.264,4.408-4.472,6.621-6.7C920.431,690.5,920.55,690.373,920.7,690.219Zm12.4,1.548a10.533,10.533,0,1,0,.007-21.065,10.533,10.533,0,0,0-.007,21.065Z" transform="translate(-912.793 -665.918)" fill="#fff"/>
</svg>
