<svg xmlns="http://www.w3.org/2000/svg" width="28.668" height="19.726" viewBox="0 0 28.668 19.726">
  <g id="Group_391" data-name="Group 391" transform="translate(-178.854 -498.701)">
    <path id="Path_459" data-name="Path 459" d="M193.229,498.7q5.624,0,11.248,0a2.728,2.728,0,0,1,3.043,3.016q.006,6.908,0,13.817a2.687,2.687,0,0,1-2.8,2.876q-11.512.029-23.024,0a2.7,2.7,0,0,1-2.831-3.016c-.014-4.153-.006-8.305,0-12.458a14.486,14.486,0,0,1,.049-1.806,2.636,2.636,0,0,1,2.771-2.426C185.529,498.7,189.379,498.7,193.229,498.7Zm-12.508,4.946V514.13c.263-.207.442-.343.615-.486,1.377-1.138,2.74-2.294,4.142-3.4a1.307,1.307,0,0,1,1-.257c.727.208.778,1.056.12,1.606-1.7,1.421-3.409,2.826-5.113,4.24-.18.149-.351.307-.667.584a7.517,7.517,0,0,0,1.061.179q11.324.012,22.649,0a5.83,5.83,0,0,0,1.2-.3c-.369-.319-.569-.5-.776-.671-1.627-1.348-3.261-2.689-4.882-4.046a.9.9,0,0,1-.214-1.373.868.868,0,0,1,1.332-.008c.764.655,1.546,1.289,2.322,1.929.688.568,1.379,1.134,2.15,1.768V503.638c-.309.2-.54.336-.765.486q-4.862,3.248-9.723,6.5a2.941,2.941,0,0,1-3.949,0q-4.926-3.287-9.85-6.578C181.176,503.91,180.963,503.794,180.721,503.649Zm12.493-3.155q-5.548,0-11.1,0a1.7,1.7,0,0,0-.743.051,1.676,1.676,0,0,0-.639.651c-.044.082.215.4.4.522,3.761,2.518,7.535,5.016,11.294,7.536a1.2,1.2,0,0,0,1.511.02c3.781-2.533,7.577-5.043,11.359-7.574.175-.117.4-.411.355-.553a1.045,1.045,0,0,0-.524-.576,2.024,2.024,0,0,0-.816-.077Q198.762,500.491,193.214,500.494Z" fill="#919191"/>
  </g>
</svg>
